<?xml version="1.0" encoding="utf-8"?>
<!-- Generator: Adobe Illustrator 17.0.0, SVG Export Plug-In . SVG Version: 6.00 Build 0)  -->
<!DOCTYPE svg PUBLIC "-//W3C//DTD SVG 1.1//EN" "http://www.w3.org/Graphics/SVG/1.1/DTD/svg11.dtd">
<svg version="1.1" id="Camada_1" xmlns="http://www.w3.org/2000/svg" xmlns:xlink="http://www.w3.org/1999/xlink" x="0px" y="0px"
	 width="417.042px" height="147.162px" viewBox="0 0 417.042 147.162" enable-background="new 0 0 417.042 147.162"
	 xml:space="preserve">
<g>
	<line fill="#FFFFFF" stroke="#FFFFFF" stroke-width="3" x1="328.044" y1="44.697" x2="15.318" y2="44.697"/>
	<line fill="#FFFFFF" stroke="#FFFFFF" stroke-width="3" x1="15.709" y1="112.562" x2="124.79" y2="112.562"/>
	<line fill="#FFFFFF" stroke="#FFFFFF" stroke-width="3" x1="139.034" y1="112.562" x2="178.376" y2="112.562"/>
	<line fill="#FFFFFF" stroke="#FFFFFF" stroke-width="3" x1="212.406" y1="112.562" x2="403.058" y2="112.562"/>
	<g>
		<path fill="#FFFFFF" d="M199.653,78.357l7.526,0.056v3.289l-2.676,0.168c1.003,1.505,1.561,3.457,1.561,5.909
			c0,6.746-4.404,10.203-10.816,10.203c-1.339,0-2.62-0.167-3.848-0.446c-0.557,0.446-1.059,1.171-1.059,2.063
			c0,1.338,1.283,2.286,5.687,2.286c8.307,0,12.043,3.067,12.043,8.809c0,6.523-4.294,10.091-12.712,10.091
			c-8.753,0-12.488-3.848-12.488-9.31c0-3.791,1.784-5.798,3.512-6.858c-0.39-0.836-0.613-1.784-0.613-3.01
			c0-2.732,1.283-4.461,2.453-5.464c-2.62-1.673-4.293-4.461-4.293-8.364c0-7.025,5.296-10.035,11.484-10.035
			C196.921,77.744,198.37,77.967,199.653,78.357z M189.45,107.292c-0.781,0.836-1.394,2.119-1.394,4.014
			c0,3.513,2.23,5.687,7.304,5.687c4.46,0,6.523-1.672,6.523-4.571c0-3.067-2.51-4.238-7.026-4.238
			C192.74,108.185,190.899,107.906,189.45,107.292z M195.025,81.312c-2.342,0-3.958,1.115-3.958,6.467
			c0,5.017,1.505,6.803,4.013,6.803c2.453,0,3.791-1.84,3.791-6.914C198.872,82.427,197.367,81.312,195.025,81.312z"/>
		<path fill="#FFFFFF" d="M234.612,106.177h-5.966l-1.058-2.453h-0.112c0,0-2.063,3.067-7.75,3.067
			c-5.686,0-8.586-2.955-8.586-9.533V78.302h7.416v17.394c0,5.129,1.227,6.467,3.791,6.467c2.955,0,4.851-2.119,4.851-2.119V78.302
			l7.416,0L234.612,106.177z"/>
		<path fill="#FFFFFF" d="M242.866,79.918c0,0,4.293-2.23,8.641-2.23c6.523,0,10.761,2.23,10.761,9.758v12.655
			c0,2.342,0.613,2.955,1.171,2.955c0.668,0,1.896-0.391,1.896-0.391l0.223,2.9c0,0-3.848,1.226-6.188,1.226
			c-2.175,0-3.29-1.003-3.68-3.457h-0.279c0,0-1.561,3.457-7.303,3.457c-5.129,0-8.586-2.732-8.586-7.303
			c0-7.416,9.365-9.311,15.332-9.813v-1.616c0-5.185-1.394-6.635-4.628-6.635c-2.62,0-6.635,2.062-6.635,2.062L242.866,79.918z
			 M254.853,92.63c-4.628,0.501-7.582,2.007-7.582,5.91c0,3.067,1.338,4.516,3.289,4.516c3.067,0,4.294-3.067,4.294-3.067V92.63z"/>
		<path fill="#FFFFFF" d="M285.685,83.654c0,0-2.844-0.781-4.628-0.781c-2.843,0-3.68,3.345-3.68,3.345v19.959l-7.415,0V78.302
			h5.241l1.227,4.683h0.222c0,0,0.725-5.297,5.297-5.297c1.784,0,4.404,0.781,4.404,0.781L285.685,83.654z"/>
		<path fill="#FFFFFF" d="M290.203,79.918c0,0,4.293-2.23,8.641-2.23c6.523,0,10.761,2.23,10.761,9.758v12.655
			c0,2.342,0.613,2.955,1.171,2.955c0.668,0,1.896-0.391,1.896-0.391l0.223,2.9c0,0-3.848,1.226-6.188,1.226
			c-2.175,0-3.29-1.003-3.68-3.457h-0.279c0,0-1.561,3.457-7.303,3.457c-5.129,0-8.586-2.732-8.586-7.303
			c0-7.416,9.365-9.311,15.332-9.813v-1.616c0-5.185-1.394-6.635-4.627-6.635c-2.62,0-6.635,2.062-6.635,2.062L290.203,79.918z
			 M302.19,92.63c-4.627,0.501-7.583,2.007-7.583,5.91c0,3.067,1.338,4.516,3.289,4.516c3.067,0,4.294-3.067,4.294-3.067
			L302.19,92.63z"/>
		<path fill="#FFFFFF" d="M317.3,78.302h5.965l0.948,2.286h0.223c0,0,2.119-2.843,7.861-2.843c5.687,0,8.586,2.955,8.586,9.533
			l0,18.9l-7.415,0V88.783c0-5.074-1.003-6.412-3.735-6.412c-3.234,0-5.019,2.007-5.019,2.007v21.799H317.3V78.302z"/>
		<path fill="#FFFFFF" d="M348.803,79.918c0,0,4.293-2.23,8.641-2.23c6.523,0,10.761,2.23,10.761,9.758v12.655
			c0,2.342,0.613,2.955,1.171,2.955c0.668,0,1.896-0.391,1.896-0.391l0.223,2.9c0,0-3.848,1.226-6.188,1.226
			c-2.175,0-3.29-1.003-3.68-3.457h-0.279c0,0-1.561,3.457-7.303,3.457c-5.129,0-8.586-2.732-8.586-7.303
			c0-7.416,9.365-9.311,15.332-9.813v-1.616c0-5.185-1.394-6.635-4.628-6.635c-2.62,0-6.635,2.062-6.635,2.062L348.803,79.918z
			 M360.79,92.63c-4.628,0.501-7.582,2.007-7.582,5.91c0,3.067,1.338,4.516,3.289,4.516c3.067,0,4.294-3.067,4.294-3.067V92.63z
			 M365.584,67.206l-6.746,7.248l-3.178-0.502l3.903-8.474L365.584,67.206z"/>
	</g>
	<g>
		<path fill="#FFFFFF" d="M97.047,61.404c0.946-0.458,1.849-0.802,2.71-1.032c0.459,0.287,0.888,0.616,1.29,0.989
			c0.401,0.373,0.658,0.731,0.774,1.075c-1.032,1.664-2.209,3.842-3.527,6.537c-1.32,2.697-2.638,5.478-3.957,8.344
			c1.319,0,2.939-0.028,4.86-0.086c1.921-0.056,3.598-0.142,5.033-0.257c0,0.229-0.159,0.645-0.473,1.246
			c-0.316,0.602-0.617,1.048-0.903,1.334c-2.811,0.689-6.224,1.235-10.237,1.635c-2.008,4.817-3.427,8.53-4.258,11.14
			c-0.832,2.61-1.247,4.546-1.247,5.806c0,1.262,0.286,1.892,0.86,1.892c0.803-0.056,1.992-0.529,3.57-1.419
			c1.577-0.889,3.398-2.108,5.463-3.656c0.516,0.86,0.774,1.836,0.774,2.924c-3.155,2.237-6.036,4.102-8.646,5.592
			c-2.61,1.49-4.546,2.237-5.806,2.237c-0.632,0-1.176-0.344-1.634-1.033c-0.46-0.689-0.689-1.577-0.689-2.667
			c0-1.662,0.559-4.301,1.678-7.914c1.118-3.613,2.71-7.771,4.774-12.474c-0.918,0-2.008,0-3.269,0
			c-1.72,0.058-2.638,0.086-2.753,0.086c0-0.344,0.157-0.817,0.473-1.42c0.315-0.601,0.588-0.989,0.818-1.16
			c0.744-0.229,1.949-0.487,3.613-0.775c1.032-0.172,1.949-0.344,2.753-0.516c0.573-1.319,1.175-2.71,1.807-4.172
			c0.63-1.463,1.247-2.968,1.849-4.517c0.602-1.548,1.075-2.867,1.419-3.957c0.344-1.088,0.516-1.863,0.516-2.323
			C95.311,62.351,96.1,61.864,97.047,61.404z"/>
		<path fill="#FFFFFF" d="M112.143,78.609l0.258-0.086c0.688,0.574,1.175,1.118,1.463,1.634c-2.18,3.729-3.742,6.882-4.689,9.462
			c-0.946,2.581-1.419,4.732-1.419,6.452c0,0.46,0.056,0.847,0.172,1.161c0.114,0.316,0.315,0.473,0.602,0.473
			c1.147,0,3.269-1.619,6.366-4.86c3.097-3.239,6.422-7.641,9.979-13.205c0.744-0.515,1.576-0.959,2.494-1.334
			c0.917-0.372,1.635-0.559,2.151-0.559c0.286,0.116,0.645,0.344,1.075,0.689c0.43,0.344,0.702,0.66,0.817,0.946
			c-1.664,3.097-3.096,6.51-4.301,10.237c-0.516,1.664-0.918,3.155-1.204,4.473c-0.288,1.32-0.43,2.353-0.43,3.097
			c0,1.032,0.258,1.548,0.775,1.548c1.204,0,3.153-1.033,5.849-3.097c0.401,0.747,0.602,1.579,0.602,2.495
			c-0.688,0.632-1.505,1.32-2.451,2.065c-0.946,0.746-1.95,1.434-3.011,2.065c-1.062,0.632-2.079,1.149-3.054,1.548
			c-0.976,0.403-1.779,0.602-2.409,0.602c-0.574,0-1.062-0.271-1.463-0.817c-0.402-0.544-0.602-1.361-0.602-2.451
			c0-1.433,0.228-3.14,0.688-5.118c0.459-1.979,1.06-3.942,1.806-5.893c0-0.286-0.143-0.43-0.43-0.43
			c-0.058,0-0.144,0.03-0.258,0.086h-0.086c-4.072,4.761-7.628,8.374-10.667,10.839c-3.041,2.466-5.363,3.699-6.968,3.699
			c-1.664,0-2.494-1.088-2.494-3.268c0-1.205,0.2-2.667,0.602-4.387c0.401-1.72,0.96-3.555,1.678-5.505
			c0.716-1.95,1.49-3.857,2.322-5.721c0.831-1.863,1.706-3.684,2.624-5.463C109.446,79.469,110.651,79.011,112.143,78.609z"/>
		<path fill="#FFFFFF" d="M143.411,77.189c0.775-0.487,1.534-0.817,2.28-0.989c0.688,0.288,1.319,0.803,1.892,1.548
			c-0.058,0.46-0.258,1.262-0.602,2.409c-0.344,1.148-0.718,2.151-1.118,3.011c0,0.287,0.2,0.429,0.602,0.429l0.172-0.086h0.086
			c1.72-1.777,3.641-3.34,5.763-4.688c2.121-1.346,3.728-2.021,4.818-2.021c0.802,0,1.605,0.559,2.408,1.677
			c0.803,1.119,1.204,2.481,1.204,4.087c0,2.466-0.617,5.075-1.849,7.828c-1.234,2.753-2.825,5.277-4.774,7.57
			c-1.95,2.295-3.957,4.159-6.022,5.592c-2.065,1.432-3.843,2.151-5.334,2.151c-0.632,0-1.492-0.159-2.581-0.474
			c-1.09-0.316-2.008-0.759-2.753-1.334c-2.18,5.046-3.871,9.52-5.075,13.42c-1.204,3.9-1.806,6.967-1.806,9.204
			c0,0.172,0,0.43,0,0.775c0.057,0.344,0.086,0.573,0.086,0.689c-0.631,0.515-1.39,1.002-2.28,1.462
			c-0.888,0.458-1.648,0.716-2.28,0.775h-0.086c-0.516-0.231-0.989-0.474-1.419-0.732c-0.43-0.257-0.674-0.559-0.732-0.903
			c0.23-1.148,0.546-2.365,0.946-3.655c0.402-1.291,0.933-2.854,1.592-4.689c0.66-1.836,1.563-4.187,2.71-7.053
			c1.148-2.869,2.552-6.223,4.215-10.065c2.293-5.334,4.043-9.634,5.247-12.904c1.204-3.268,2.207-6.452,3.011-9.548
			c0.172-0.573,0.258-1.089,0.258-1.548c0-0.115-0.03-0.258-0.086-0.43c0-0.115,0-0.201,0-0.258
			C142.135,78.093,142.637,77.677,143.411,77.189z M141.992,101.362c0.86,0.66,1.49,0.989,1.892,0.989
			c0.63,0,1.562-0.487,2.796-1.462c1.233-0.974,2.495-2.308,3.785-4.001c1.29-1.691,2.366-3.54,3.226-5.548
			c0.86-2.007,1.29-4.014,1.29-6.022c0-1.033-0.187-1.764-0.559-2.194c-0.374-0.43-0.79-0.645-1.247-0.645
			c-0.288,0-0.847,0.244-1.678,0.731c-0.832,0.488-1.778,1.161-2.839,2.022c-1.062,0.86-2.094,1.864-3.097,3.01
			c-1.004,1.148-1.879,2.353-2.623,3.613l-0.258,0.516c-0.516,0.861-0.976,1.735-1.377,2.623c-0.402,0.89-0.918,2.252-1.548,4.087
			C140.386,99.942,141.132,100.703,141.992,101.362z"/>
		<path fill="#FFFFFF" d="M163.971,104.373c-0.374-0.545-0.559-1.476-0.559-2.796c0-2.868,1.835-9.062,5.506-18.581
			c0.172-0.689,0.258-1.347,0.258-1.979c0-0.057,0-0.228,0-0.516c-0.057-0.228-0.086-0.401-0.086-0.516
			c0.572-0.458,1.304-0.917,2.193-1.376c0.889-0.459,1.678-0.745,2.366-0.861c0.344,0.058,0.731,0.33,1.161,0.817
			c0.43,0.488,0.731,0.989,0.903,1.506c-2.466,4.703-4.187,8.43-5.161,11.184c-0.976,2.752-1.462,4.903-1.462,6.451
			c0,1.493,0.372,2.237,1.118,2.237c0.459,0,1.233-0.301,2.323-0.903c1.089-0.601,2.093-1.304,3.011-2.107
			c0.172,0.288,0.344,0.687,0.516,1.204c0.172,0.516,0.258,0.947,0.258,1.291c-2.524,1.892-4.731,3.326-6.624,4.301
			c-1.892,0.975-3.269,1.462-4.129,1.462C164.874,105.19,164.343,104.917,163.971,104.373z M182.81,60.759
			c0.487,0.718,0.731,1.191,0.731,1.42c0,0.688-0.402,1.62-1.204,2.796c-0.804,1.176-1.951,2.051-3.442,2.623
			c-0.86-0.344-1.548-0.873-2.064-1.592c-0.516-0.716-0.774-1.304-0.774-1.763c0-0.573,0.487-1.462,1.462-2.667
			c0.516-0.63,1.089-1.161,1.72-1.592c0.631-0.429,1.319-0.673,2.065-0.731C181.821,59.541,182.322,60.043,182.81,60.759z"/>
	</g>
	<line fill="#FFFFFF" stroke="#FFFFFF" stroke-width="3" x1="15.318" y1="44.15" x2="15.318" y2="113.106"/>
	<line fill="#FFFFFF" stroke="#FFFFFF" stroke-width="3" x1="403.058" y1="44.697" x2="403.058" y2="112.562"/>
	<circle fill="#FFFFFF" cx="384.837" cy="91.154" r="5.206"/>
	<line fill="#FFFFFF" stroke="#FFFFFF" stroke-width="3" x1="403.925" y1="44.697" x2="397.405" y2="44.697"/>
	<g>
		<g>
			<g>
				<path fill="#FFFFFF" d="M343.973,57.824l-0.404,1.02c-4.505-1.784-12.856-5.549-12.94-5.586l-0.478-0.216l0.193-0.487
					c0.037-0.094,3.731-9.39,5.492-12.954l0.984,0.486c-1.51,3.056-4.476,10.421-5.262,12.385
					C333.401,53.299,340.114,56.296,343.973,57.824z"/>
			</g>
			<g>
				<path fill="#FFFFFF" d="M362.535,39.743c0.013,0.033,0.026,0.067,0.039,0.1l0.244,0.626l-0.589,0.161
					c-1.021,0.278-4.749,1.206-9.859,1.46c-6.597,0.328-12.734-0.57-18.242-2.668l-0.571-0.217l0.277-0.544
					c1.736-3.409,4.656-6.078,8.223-7.513c6.552-2.637,14.107-0.615,18.374,4.918l0.017,0.023c0.389,0.564,0.783,1.157,1.171,1.763
					l0.015,0.025C361.975,38.477,362.278,39.105,362.535,39.743z M335.104,38.613c5.214,1.888,11,2.689,17.211,2.38
					c4.267-0.212,7.537-0.901,9.022-1.267c-0.195-0.442-0.412-0.877-0.65-1.297c-0.375-0.587-0.756-1.161-1.133-1.706
					c-3.969-5.137-10.993-7.012-17.086-4.559C339.339,33.424,336.745,35.701,335.104,38.613z"/>
			</g>
			<g>
				<path fill="#FFFFFF" d="M362.626,39.969c0.256,0.637,0.473,1.299,0.643,1.967l0.006,0.028c0.14,0.702,0.267,1.402,0.377,2.08
					l0.004,0.028c0.755,6.936-3.287,13.62-9.829,16.253c-3.562,1.434-7.511,1.533-11.119,0.278l-0.577-0.201l0.261-0.552
					c2.514-5.321,6.313-10.213,11.29-14.54c3.855-3.352,7.182-5.263,8.109-5.769l0.536-0.292l0.257,0.62
					C362.598,39.902,362.612,39.935,362.626,39.969z M362.202,42.193c-0.12-0.467-0.263-0.93-0.428-1.383
					c-1.323,0.764-4.154,2.53-7.372,5.328c-4.686,4.074-8.299,8.653-10.747,13.619c3.196,0.962,6.638,0.807,9.762-0.45
					c6.084-2.449,9.845-8.658,9.15-15.102C362.46,43.55,362.337,42.873,362.202,42.193z"/>
			</g>
			<g>
				<path fill="#FFFFFF" d="M362.972,39.634l0.008,0.02l0.192,0.51l-0.505,0.204c-3.796,1.459-7.951,1.346-11.7-0.32
					c-3.75-1.666-6.666-4.696-8.21-8.533l-0.007-0.017l-0.196-0.512l0.508-0.205c3.795-1.459,7.951-1.346,11.7,0.32
					C358.512,32.767,361.428,35.798,362.972,39.634z M343.99,31.613c1.483,3.33,4.101,5.957,7.423,7.432
					c3.306,1.469,6.951,1.638,10.327,0.491c-1.484-3.33-4.101-5.957-7.423-7.432C351.01,30.636,347.365,30.466,343.99,31.613z"/>
			</g>
			<g>
				<path fill="#FFFFFF" d="M362.985,39.667c1.554,3.86,1.56,8.087,0.017,11.903c-1.543,3.816-4.457,6.787-8.205,8.364l-0.514,0.216
					l-0.215-0.533c-1.554-3.86-1.56-8.087-0.017-11.903c1.543-3.816,4.457-6.787,8.205-8.365l0.514-0.216L362.985,39.667z
					 M354.889,58.693c3.227-1.512,5.735-4.169,7.095-7.534c1.367-3.383,1.427-7.114,0.179-10.567
					c-3.227,1.512-5.735,4.169-7.095,7.534C353.701,51.508,353.641,55.239,354.889,58.693z"/>
			</g>
		</g>
		<g>
			<g>
				<path fill="#FFFFFF" d="M392.174,44.773L392.174,44.773c1.659,4.122,3.202,11.275,3.267,11.578l0.094,0.437l-0.385,0.226
					c-0.338,0.198-8.309,4.852-12.15,6.05c-2.82,0.879-7.154,1.254-10.862-0.329c-3.622-1.546-6.426-4.41-7.896-8.062
					c-1.474-3.661-1.432-7.677,0.118-11.307c1.548-3.626,4.415-6.431,8.074-7.901c3.658-1.469,7.67-1.426,11.295,0.122
					c1.653,0.706,4.843,2.614,7.637,7.465C391.621,43.498,391.894,44.077,392.174,44.773z M394.137,56.172
					c-0.366-1.638-1.72-7.487-3.108-10.938l0-0.001c-0.259-0.642-0.506-1.169-0.734-1.566c-2.615-4.54-5.541-6.301-7.052-6.946
					c-3.322-1.419-6.998-1.458-10.35-0.112c-3.352,1.346-5.98,3.917-7.398,7.24c-1.42,3.326-1.459,7.006-0.108,10.361
					c1.347,3.347,3.917,5.971,7.235,7.388c2.801,1.196,6.73,1.308,10.01,0.286C385.871,60.874,392.47,57.131,394.137,56.172z"/>
			</g>
			<g>
				<path fill="#FFFFFF" d="M395.018,56.509l-0.651,0.202c-4.485,1.392-8.822,1.597-12.888,0.608
					c-3.253-0.791-6.335-2.343-9.159-4.612c-4.789-3.848-7.148-8.373-7.246-8.563l-0.361-0.701l0.767-0.182
					c4.943-1.175,9.559-1.246,13.718-0.213c3.34,0.83,6.39,2.369,9.066,4.574c4.549,3.75,6.412,8.078,6.489,8.26L395.018,56.509z
					 M366.573,44.279c0.849,1.407,3.041,4.679,6.555,7.492c2.68,2.146,5.597,3.611,8.669,4.354
					c3.631,0.878,7.502,0.747,11.515-0.389c-0.68-1.312-2.531-4.454-5.875-7.197c-2.531-2.076-5.415-3.524-8.571-4.303
					C375.135,43.316,371.003,43.331,366.573,44.279z"/>
			</g>
		</g>
		<g>
			<g>
				<path fill="#FFFFFF" d="M380.516,15.81c0.28,0.696,0.485,1.302,0.609,1.803c1.346,5.434,0.367,9.02-0.336,10.674
					c-1.542,3.628-4.405,6.438-8.061,7.914c-3.656,1.475-7.667,1.438-11.296-0.104c-3.632-1.544-6.444-4.411-7.918-8.072
					c-1.47-3.653-1.432-7.66,0.109-11.284c1.577-3.711,4.963-6.443,7.605-7.762c3.6-1.797,12.573-3.964,12.953-4.055l0.434-0.104
					l0.235,0.38C375.014,5.461,378.857,11.689,380.516,15.81z M354.66,27.564c1.35,3.355,3.927,5.982,7.256,7.397
					c3.325,1.413,7,1.447,10.351,0.095c3.35-1.352,5.973-3.927,7.386-7.252c0.643-1.512,1.533-4.808,0.274-9.894
					c-0.11-0.445-0.297-0.996-0.556-1.639c-1.389-3.451-4.465-8.606-5.336-10.041c-1.866,0.463-9.218,2.336-12.254,3.852
					c-3.073,1.535-5.829,4.338-7.021,7.141C353.348,20.544,353.313,24.216,354.66,27.564z"/>
			</g>
			<g>
				<path fill="#FFFFFF" d="M374.436,5.377l0.244,0.637c0.071,0.185,1.726,4.596,1.043,10.452c-0.402,3.444-1.535,6.667-3.369,9.579
					c-2.283,3.627-5.662,6.773-10.04,9.35l-0.679,0.4l-0.225-0.755c-0.061-0.205-1.494-5.103-0.707-11.196
					c0.464-3.593,1.612-6.847,3.41-9.671c2.247-3.53,5.516-6.387,9.715-8.49L374.436,5.377z M362.396,33.902
					c3.852-2.385,6.842-5.237,8.895-8.486c1.736-2.748,2.813-5.79,3.2-9.041c0.511-4.295-0.331-7.843-0.749-9.26
					c-3.681,1.961-6.563,4.548-8.574,7.697c-1.701,2.664-2.789,5.742-3.235,9.146C361.348,28.421,362.034,32.3,362.396,33.902z"/>
			</g>
		</g>
	</g>
	<g>
		<path fill="#FFFFFF" d="M218.681,133.07c0,0-0.983,1.799-3.627,1.799c-2.817,0-4.673-1.651-4.673-5.293
			c0-3.579,1.702-5.716,4.477-5.716c2.49,0,3.91,1.736,3.91,4.827c0,0.657-0.11,0.974-0.11,0.974l-6.617,0
			c0,2.942,1.136,4.277,3.187,4.277c1.944,0,2.818-1.376,2.818-1.376L218.681,133.07z M212.063,128.772h5.22
			c0,0,0.021-0.212,0.021-0.403c0-2.392-0.808-3.598-2.446-3.598C213.132,124.771,212.216,126.062,212.063,128.772z"/>
		<path fill="#FFFFFF" d="M223.403,132.562c0,0,0.895,1.376,2.751,1.376c1.726,0,2.468-0.996,2.468-2.033
			c0-2.837-5.306-1.419-5.306-5.102c0-1.822,1.528-2.943,3.624-2.943c1.595,0,2.883,0.826,2.883,0.826l-0.262,0.91
			c0,0-1.157-0.847-2.489-0.847c-1.376,0-2.25,0.74-2.25,1.715c0,2.836,5.46,1.524,5.46,5.187c0,1.694-1.179,3.218-3.866,3.218
			c-2.621,0-3.559-1.567-3.559-1.567L223.403,132.562z"/>
		<path fill="#FFFFFF" d="M239.981,125.11h-2.795l0,6.33c0,1.841,0.328,2.414,1.223,2.414c0.874,0,1.42-0.233,1.42-0.233l0.11,0.847
			c0,0-0.612,0.403-2.032,0.403c-1.55,0-2.315-0.826-2.315-3.049v-6.711h-1.136v-0.89l1.136-0.126l0.59-3.367h1.003v3.345h2.795
			V125.11z"/>
		<path fill="#FFFFFF" d="M252.848,134.658h-1.332l-0.218-1.016c-0.131,0.169-1.026,1.228-3.167,1.228
			c-2.074,0-3.341-1.101-3.341-3.408v-7.39h1.594v7.071c0,1.863,0.874,2.605,2.271,2.605c1.747,0,2.599-1.08,2.599-1.08l0-8.596
			h1.594L252.848,134.658z M251.167,119.71l-2.228,2.859l-0.83-0.106l1.681-3.07L251.167,119.71z"/>
		<path fill="#FFFFFF" d="M266.721,134.658h-1.353l-0.175-1.249c-0.153,0.295-0.918,1.46-2.905,1.46c-2.598,0-4.39-1.884-4.39-5.208
			c0-3.472,1.572-5.801,4.455-5.801c2.009,0,2.774,1.016,2.774,1.016h0.021v-6.055l1.572-0.085V134.658z M265.149,132.349v-6.499
			c0,0-0.764-0.974-2.314-0.974c-2.271,0-3.255,1.651-3.255,4.743c0,3.049,1.136,4.214,3.058,4.214
			C264.429,133.832,265.149,132.349,265.149,132.349z"/>
		<path fill="#FFFFFF" d="M273.388,120.113c0.241,0,0.482,0.063,0.656,0.211c0.175,0.191,0.262,0.445,0.262,0.699
			c0,0.254-0.087,0.486-0.262,0.677c-0.197,0.148-0.415,0.232-0.656,0.232c-0.24,0-0.479-0.085-0.633-0.232
			c-0.196-0.191-0.283-0.423-0.283-0.677c0-0.254,0.087-0.486,0.283-0.677C272.93,120.176,273.148,120.113,273.388,120.113z
			 M274.174,134.658l-1.594,0v-10.586h1.594V134.658z"/>
		<path fill="#FFFFFF" d="M283.873,134.869c-3.058,0-4.651-2.053-4.651-5.505c0-3.452,1.594-5.505,4.651-5.505
			c3.057,0,4.651,2.053,4.651,5.505C288.524,132.816,286.843,134.869,283.873,134.869z M280.903,129.365
			c0,3.028,0.895,4.573,2.97,4.573c2.053,0,2.97-1.524,2.97-4.573c0-3.028-0.917-4.573-2.97-4.573
			C281.798,124.792,280.903,126.337,280.903,129.365z"/>
		<path fill="#FFFFFF" d="M306.2,124.072h0.021l2.795,0.022v0.825l-1.398,0.042c0.547,0.593,0.874,1.46,0.874,2.646
			c0,2.478-1.485,3.77-3.821,3.77c-0.48,0-0.917-0.043-1.333-0.149c-0.327,0.212-0.764,0.593-0.764,1.101
			c0,0.783,0.655,1.016,2.032,1.016c3.013,0,4.782,0.996,4.782,3.26c0,2.308-1.637,3.557-4.586,3.557
			c-3.079,0-4.717-1.186-4.717-3.451c0-1.588,0.895-2.415,1.813-2.774c-0.262-0.296-0.394-0.698-0.394-1.25
			c0-0.868,0.547-1.44,1.006-1.778c-1.158-0.571-1.835-1.714-1.835-3.303c0-2.751,1.877-3.747,4.018-3.747
			C305.218,123.86,305.742,123.924,306.2,124.072z M302.793,134.467c-0.786,0.318-1.464,1.016-1.464,2.224
			c0,1.736,1.31,2.519,3.473,2.519c2.031,0,3.189-0.803,3.189-2.35c0-1.631-1.441-2.224-3.559-2.224
			C303.82,134.636,303.252,134.595,302.793,134.467z M304.607,124.771c-1.333,0-2.403,0.593-2.403,2.836
			c0,1.948,0.896,2.923,2.425,2.923c1.506,0,2.315-0.953,2.315-2.943C306.943,125.427,305.982,124.771,304.607,124.771z"/>
		<path fill="#FFFFFF" d="M318.982,125.364c0,0-0.961-0.318-1.638-0.318c-1.419,0-1.988,1.799-2.031,1.99v7.622h-1.595v-10.586
			h1.179l0.241,2.18c0,0,0.524-2.392,2.38-2.392c0.678,0,1.616,0.339,1.616,0.339L318.982,125.364z"/>
		<path fill="#FFFFFF" d="M323.659,124.834c0,0,1.485-0.974,3.079-0.974c2.402,0,3.625,0.805,3.625,3.452v5.187
			c0,1.27,0.306,1.44,0.568,1.44c0.328,0,0.852-0.19,0.852-0.19l0.065,0.719c0,0-1.071,0.403-1.703,0.403
			c-0.72,0-1.157-0.339-1.244-1.588h-0.022c0,0-0.786,1.588-3.101,1.588c-1.878,0-3.189-0.932-3.189-2.605
			c0-2.858,3.909-3.513,6.18-3.747v-1.122c0-2.032-0.633-2.605-2.271-2.605c-1.266,0-2.663,0.911-2.663,0.911L323.659,124.834z
			 M328.768,129.301c-2.139,0.233-4.543,0.806-4.543,2.774c0,1.25,0.831,1.863,2.032,1.863c1.791,0,2.511-1.545,2.511-1.545V129.301
			z M329.315,119.71l-2.228,2.859l-0.83-0.106l1.682-3.07L329.315,119.71z"/>
		<path fill="#FFFFFF" d="M357.734,124.792c-2.206,0-3.255,1.27-3.255,4.658c0,3.387,1.288,4.488,3.167,4.488
			c1.899,0,2.708-1.313,2.708-1.313l0.699,0.445c0,0-0.874,1.799-3.539,1.799c-2.97,0-4.717-1.736-4.717-5.399
			c0-3.578,1.617-5.61,4.762-5.61c1.702,0,3.058,0.911,3.058,0.911l-0.197,0.868C360.42,125.638,359.175,124.792,357.734,124.792z"
			/>
		<path fill="#FFFFFF" d="M369.291,134.869c-3.057,0-4.651-2.053-4.651-5.505c0-3.452,1.594-5.505,4.651-5.505
			c3.058,0,4.651,2.053,4.651,5.505C373.942,132.816,372.261,134.869,369.291,134.869z M366.321,129.365
			c0,3.028,0.895,4.573,2.97,4.573c2.053,0,2.97-1.524,2.97-4.573c0-3.028-0.917-4.573-2.97-4.573
			C367.216,124.792,366.321,126.337,366.321,129.365z"/>
		<g>
			<path fill="#FFFFFF" d="M341.796,125.109h-3.167v9.549h-1.572v-9.549h-1.136v-0.89l1.136-0.126v-1.524
				c0-2.646,0.744-3.98,2.861-3.98c1.179,0,2.075,0.613,2.075,0.613l-0.219,0.826c0,0-0.742-0.487-1.572-0.487
				c-1.113,0-1.572,0.677-1.572,3.197v1.334h3.167V125.109z"/>
		</g>
		<g>
			<path fill="#FFFFFF" d="M347.536,120.526c0.241,0,0.482,0.063,0.656,0.211c0.175,0.191,0.262,0.445,0.262,0.699
				c0,0.254-0.087,0.486-0.262,0.677c-0.197,0.148-0.415,0.232-0.656,0.232c-0.24,0-0.479-0.085-0.633-0.232
				c-0.196-0.191-0.283-0.423-0.283-0.677c0-0.254,0.087-0.486,0.283-0.677C347.078,120.589,347.296,120.526,347.536,120.526z
				 M348.322,135.07h-1.594v-10.586h1.594L348.322,135.07z"/>
		</g>
	</g>
</g>
</svg>
